# xmcd
#
# Track frame offsets:
#	150
#	30695
#	61618
#	87385
#	122243
#	150823
#	168245
#	188985
#	233108
#	257060
#	275845
#	295055
#
# Disc length: 4193 seconds
#
# Revision: 0
# Processed by: cddbd v1.5.2PL0 Copyright (c) Steve Scherf et al.
# Submitted via: dBpowerAMP V4.0
#
DISCID=9e105f0c
DTITLE=Mariah Carey - The 12"  Collection of
DYEAR=1900
DGENRE=
TTITLE0=There's Got to be a Way (12" vocal club)
TTITLE1=Someday (12" House mix)
TTITLE2=Medley (exc Prisoner_All in your mind_Someday)
TTITLE3=Emotios (12" C&C Club)
TTITLE4=Make it Happen (12" extended version)
TTITLE5=Cant Let it Go (edit)
TTITLE6=Hero (12" US live version)
TTITLE7=Dreamlover (12" Club Joint mix)
TTITLE8=Anytime you need a Friend (12" ministry of Sound)
TTITLE9=Never Forget You (12" extended version)
TTITLE10=Without You  (Video live Version)
TTITLE11=Endless Love ft. Luther Vandross
EXTD=
EXTT0=
EXTT1=
EXTT2=
EXTT3=
EXTT4=
EXTT5=
EXTT6=
EXTT7=
EXTT8=
EXTT9=
EXTT10=
EXTT11=
PLAYORDER=
